HIERARCHY
ROOT Hips
{
	OFFSET 0.000000 103.266502 0.000000
	CHANNELS 6 Xposition Yposition Zposition Xrotation Yrotation Zrotation 
	JOINT Spine
	{
		OFFSET -0.002400 12.777504 0.315300
		CHANNELS 3 Xrotation Yrotation Zrotation
		JOINT Spine1
		{
			OFFSET -0.002067 5.816869 0.032633
			CHANNELS 3 Xrotation Yrotation Zrotation
			JOINT Spine1_split
			{
				OFFSET -0.002067 5.816869 0.032633
				CHANNELS 3 Xrotation Yrotation Zrotation
				JOINT Spine2
				{
					OFFSET -0.002067 5.816869 0.032633
					CHANNELS 3 Xrotation Yrotation Zrotation
					JOINT Neck
					{
						OFFSET -0.003700 21.199493 -0.826900
						CHANNELS 3 Xrotation Yrotation Zrotation
						JOINT Head
						{
							OFFSET 0.000000 20.442200 4.834800
							CHANNELS 3 Xrotation Yrotation Zrotation
							JOINT HeadTop_End
							{
								OFFSET 0.000000 34.668396 4.968400
								CHANNELS 3 Xrotation Yrotation Zrotation
								End Site
								{
									OFFSET 0.000000 0.000000 0.000000
								}
							}
						}
					}
					JOINT LeftShoulder
					{
						OFFSET 3.288150 8.794197 -1.372250
						CHANNELS 3 Xrotation Yrotation Zrotation
						JOINT LeftShoulder_split
						{
							OFFSET 3.288150 8.794197 -1.372250
							CHANNELS 3 Xrotation Yrotation Zrotation
							JOINT LeftArm
							{
								OFFSET 11.953299 -2.279007 -0.146200
								CHANNELS 3 Xrotation Yrotation Zrotation
								JOINT LeftForeArm
								{
									OFFSET 18.448900 0.000000 0.000000
									CHANNELS 3 Xrotation Yrotation Zrotation
									JOINT LeftHand
									{
										OFFSET 29.527798 0.000000 0.000000
										CHANNELS 3 Xrotation Yrotation Zrotation
										JOINT LeftHandThumb1
										{
											OFFSET 10.739754 -2.369614 9.225399
											CHANNELS 3 Xrotation Yrotation Zrotation
											JOINT LeftHandThumb2
											{
												OFFSET 4.926170 -2.844131 2.844125
												CHANNELS 3 Xrotation Yrotation Zrotation
												JOINT LeftHandThumb3
												{
													OFFSET 4.614891 -2.664413 2.664409
													CHANNELS 3 Xrotation Yrotation Zrotation
													JOINT LeftHandThumb4
													{
														OFFSET 4.432465 -2.559082 2.559083
														CHANNELS 3 Xrotation Yrotation Zrotation
														End Site
														{
															OFFSET 0.000000 0.000000 0.000000
														}
													}
												}
											}
										}
										JOINT LeftHandIndex1
										{
											OFFSET 26.467674 0.187653 6.405298
											CHANNELS 3 Xrotation Yrotation Zrotation
											JOINT LeftHandIndex2
											{
												OFFSET 8.792900 0.000000 0.000000
												CHANNELS 3 Xrotation Yrotation Zrotation
												JOINT LeftHandIndex3
												{
													OFFSET 10.075203 0.000000 0.000000
													CHANNELS 3 Xrotation Yrotation Zrotation
													End Site
													{
														OFFSET 0.000000 0.000000 0.000000
													}
												}
											}
										}
										JOINT LeftHandMiddle1
										{
											OFFSET 25.764404 0.000000 0.000000
											CHANNELS 3 Xrotation Yrotation Zrotation
											JOINT LeftHandMiddle2
											{
												OFFSET 9.393974 0.000000 0.000000
												CHANNELS 3 Xrotation Yrotation Zrotation
												JOINT LeftHandMiddle3
												{
													OFFSET 10.771950 0.000000 0.000000
													CHANNELS 3 Xrotation Yrotation Zrotation
													End Site
													{
														OFFSET 0.000000 0.000000 0.000000
													}
												}
											}
										}
										JOINT LeftHandRing1
										{
											OFFSET 24.660927 0.144547 -6.225808
											CHANNELS 3 Xrotation Yrotation Zrotation
											JOINT LeftHandRing2
											{
												OFFSET 9.393799 0.000000 0.000000
												CHANNELS 3 Xrotation Yrotation Zrotation
												JOINT LeftHandRing3
												{
													OFFSET 9.928497 0.000000 0.000000
													CHANNELS 3 Xrotation Yrotation Zrotation
													End Site
													{
														OFFSET 0.000000 0.000000 0.000000
													}
												}
											}
										}
										JOINT LeftHandPinky1
										{
											OFFSET 23.655350 0.125290 -12.815412
											CHANNELS 3 Xrotation Yrotation Zrotation
											JOINT LeftHandPinky2
											{
												OFFSET 8.425102 0.000000 0.000000
												CHANNELS 3 Xrotation Yrotation Zrotation
												JOINT LeftHandPinky3
												{
													OFFSET 8.147003 0.000000 0.000000
													CHANNELS 3 Xrotation Yrotation Zrotation
													End Site
													{
														OFFSET 0.000000 0.000000 0.000000
													}
												}
											}
										}
									}
								}
							}
						}
					}
					JOINT RightShoulder
					{
						OFFSET -3.249400 8.794197 -1.372250
						CHANNELS 3 Xrotation Yrotation Zrotation
						JOINT RightShoulder_split
						{
							OFFSET -3.249400 8.794197 -1.372250
							CHANNELS 3 Xrotation Yrotation Zrotation
							JOINT RightArm
							{
								OFFSET -11.953299 -2.279007 -0.146200
								CHANNELS 3 Xrotation Yrotation Zrotation
								JOINT RightForeArm
								{
									OFFSET -18.448900 0.000000 0.000000
									CHANNELS 3 Xrotation Yrotation Zrotation
									JOINT RightHand
									{
										OFFSET -29.527802 0.000000 0.000000
										CHANNELS 3 Xrotation Yrotation Zrotation
										JOINT RightHandThumb1
										{
											OFFSET -10.739754 -2.369614 9.225399
											CHANNELS 3 Xrotation Yrotation Zrotation
											JOINT RightHandThumb2
											{
												OFFSET -4.926170 -2.844131 2.844125
												CHANNELS 3 Xrotation Yrotation Zrotation
												JOINT RightHandThumb3
												{
													OFFSET -4.614891 -2.664413 2.664409
													CHANNELS 3 Xrotation Yrotation Zrotation
													JOINT RightHandThumb4
													{
														OFFSET -4.432465 -2.559082 2.559083
														CHANNELS 3 Xrotation Yrotation Zrotation
														End Site
														{
															OFFSET 0.000000 0.000000 0.000000
														}
													}
												}
											}
										}
										JOINT RightHandIndex1
										{
											OFFSET -26.467674 0.187653 6.405298
											CHANNELS 3 Xrotation Yrotation Zrotation
											JOINT RightHandIndex2
											{
												OFFSET -8.792900 0.000000 0.000000
												CHANNELS 3 Xrotation Yrotation Zrotation
												JOINT RightHandIndex3
												{
													OFFSET -10.075203 0.000000 0.000000
													CHANNELS 3 Xrotation Yrotation Zrotation
													End Site
													{
														OFFSET 0.000000 0.000000 0.000000
													}
												}
											}
										}
										JOINT RightHandMiddle1
										{
											OFFSET -25.764404 0.000000 0.000000
											CHANNELS 3 Xrotation Yrotation Zrotation
											JOINT RightHandMiddle2
											{
												OFFSET -9.393974 0.000000 0.000000
												CHANNELS 3 Xrotation Yrotation Zrotation
												JOINT RightHandMiddle3
												{
													OFFSET -10.771950 0.000000 0.000000
													CHANNELS 3 Xrotation Yrotation Zrotation
													End Site
													{
														OFFSET 0.000000 0.000000 0.000000
													}
												}
											}
										}
										JOINT RightHandRing1
										{
											OFFSET -24.660927 0.144547 -6.225808
											CHANNELS 3 Xrotation Yrotation Zrotation
											JOINT RightHandRing2
											{
												OFFSET -9.393799 0.000000 0.000000
												CHANNELS 3 Xrotation Yrotation Zrotation
												JOINT RightHandRing3
												{
													OFFSET -9.928497 0.000000 0.000000
													CHANNELS 3 Xrotation Yrotation Zrotation
													End Site
													{
														OFFSET 0.000000 0.000000 0.000000
													}
												}
											}
										}
										JOINT RightHandPinky1
										{
											OFFSET -23.655350 0.125290 -12.815412
											CHANNELS 3 Xrotation Yrotation Zrotation
											JOINT RightHandPinky2
											{
												OFFSET -8.425102 0.000000 0.000000
												CHANNELS 3 Xrotation Yrotation Zrotation
												JOINT RightHandPinky3
												{
													OFFSET -8.147003 0.000000 0.000000
													CHANNELS 3 Xrotation Yrotation Zrotation
													End Site
													{
														OFFSET 0.000000 0.000000 0.000000
													}
												}
											}
										}
									}
								}
							}
						}
					}
				}
			}
		}
	}
	JOINT LeftUpLeg
	{
		OFFSET 11.394100 -6.187798 -0.413800
		CHANNELS 3 Xrotation Yrotation Zrotation
		JOINT LeftLeg
		{
			OFFSET 0.430247 -32.302673 3.732800
			CHANNELS 3 Xrotation Yrotation Zrotation
			JOINT LeftFoot
			{
				OFFSET -0.430247 -48.264931 -6.423300
				CHANNELS 3 Xrotation Yrotation Zrotation
				JOINT LeftToeBase
				{
					OFFSET 4.230900 -16.068199 23.438400
					CHANNELS 3 Xrotation Yrotation Zrotation
					JOINT LeftToe_End
					{
						OFFSET 4.510700 0.695400 19.974600
						CHANNELS 3 Xrotation Yrotation Zrotation
						End Site
						{
							OFFSET 0.000000 0.000000 0.000000
						}
					}
				}
			}
		}
	}
	JOINT RightUpLeg
	{
		OFFSET -11.333700 -6.187798 -0.413800
		CHANNELS 3 Xrotation Yrotation Zrotation
		JOINT RightLeg
		{
			OFFSET -0.430392 -32.302628 3.733000
			CHANNELS 3 Xrotation Yrotation Zrotation
			JOINT RightFoot
			{
				OFFSET 0.430392 -48.264973 -6.423500
				CHANNELS 3 Xrotation Yrotation Zrotation
				JOINT RightToeBase
				{
					OFFSET -4.230900 -16.068199 23.438400
					CHANNELS 3 Xrotation Yrotation Zrotation
					JOINT RightToe_End
					{
						OFFSET -4.510700 0.695400 19.974600
						CHANNELS 3 Xrotation Yrotation Zrotation
						End Site
						{
							OFFSET 0.000000 0.000000 0.000000
						}
					}
				}
			}
		}
	}
}
MOTION
Frames: 5
Frame Time: 0.016667
-0.188823 94.286110 0.073396 -6.091915 -43.084495 -4.025007 5.833947 4.694797 -1.245663 11.836806 9.036865 -3.086775 0.000000 0.000000 0.000000 11.836807 9.036863 -3.086779 -4.023275 -0.974171 0.382902 -6.479885 20.161233 -0.594152 -0.000000 0.000000 0.000000 1.392481 -0.696029 -7.877868 0.000000 0.000000 0.000000 -14.270850 2.385502 -63.280774 9.855353 -47.499318 5.919383 16.172170 0.901940 18.796315 9.163409 4.814164 -5.499010 -0.335230 0.032286 0.783670 0.000010 0.000016 0.000011 -0.000004 -0.000001 0.000000 -0.902001 -6.980956 -3.808335 0.033589 0.804080 -16.418749 0.000000 0.000001 -0.000003 1.947924 9.683064 -14.539697 -0.463663 -1.564313 -21.881331 0.000001 0.000001 -0.000001 2.605958 14.896793 -31.345183 -0.576894 -2.712547 -32.011413 -0.000000 -0.000001 -0.000002 4.170696 18.494986 -34.987265 -0.707102 -5.788807 -39.372806 -0.000003 -0.000001 -0.000001 1.409760 9.464716 9.801444 0.000000 0.000000 0.000000 1.234156 -24.280858 60.535516 -6.660158 41.889007 8.039869 6.224104 12.306681 11.672625 -8.895690 -4.903138 -0.383785 7.905229 -19.193006 -2.856826 -0.000003 0.000003 0.000003 0.000001 0.000001 -0.000002 -1.085597 -1.215460 4.525549 0.141673 -1.114004 16.942815 0.000001 -0.000001 -0.000001 -0.663697 -2.903880 12.731729 -0.661485 1.814905 30.579047 -0.000001 -0.000001 -0.000003 2.423537 -7.404552 21.763317 -0.989848 3.764224 37.431219 0.000001 0.000000 0.000001 3.480945 -10.055089 24.322587 -1.458334 7.871962 41.091989 -0.000001 -0.000000 -0.000002 -30.646560 5.355272 14.280877 33.550490 -15.708544 -0.504072 -0.446049 1.992659 -8.517081 -2.319089 -3.216965 0.802960 -0.000000 -0.000001 -0.000000 -6.258905 -12.860984 -16.847507 32.349709 -9.247103 -0.477904 -18.034640 -3.758858 17.721822 -1.784976 -0.356668 0.333185 -0.000000 0.000000 0.000000 
-0.155779 94.160782 -0.328574 -4.775657 -41.801489 -3.668639 5.879671 4.618608 -1.192411 11.918894 8.877101 -2.961021 0.000000 0.000000 0.000000 11.918890 8.877117 -2.961027 -4.393510 -1.244332 0.135177 -6.869574 19.864926 -0.425488 -0.000000 -0.000000 -0.000000 1.570211 -1.339781 -7.270730 0.000000 0.000000 0.000000 -11.927845 2.709218 -62.623846 11.392379 -50.094909 6.156079 15.214485 1.370630 16.884530 9.193347 5.062699 -5.652774 -0.335222 0.032315 0.783670 0.000004 0.000018 0.000009 -0.000003 0.000002 -0.000001 -0.796934 -6.938158 -3.289517 0.025958 0.778746 -16.636992 0.000001 0.000001 -0.000001 1.901938 9.732996 -14.095527 -0.466259 -1.570596 -21.943776 0.000001 0.000001 -0.000000 2.724079 14.868109 -31.650410 -0.590201 -2.733306 -32.416488 -0.000005 -0.000001 0.000001 4.123995 18.303036 -35.054006 -0.711769 -5.794192 -39.703985 -0.000005 -0.000001 -0.000001 1.547676 9.347139 9.092341 0.000000 0.000000 0.000000 0.556988 -22.906431 60.241353 -3.542690 42.903881 5.840095 7.677653 11.184452 10.633505 -8.650336 -5.353443 -1.233071 7.621886 -18.559355 -2.849194 -0.000001 0.000003 0.000003 0.000001 -0.000000 -0.000002 -1.069540 -1.687648 5.364288 0.057426 -0.857534 19.622036 -0.000000 0.000000 0.000000 -0.869358 -2.826912 14.623806 -0.785350 2.015687 33.206064 -0.000001 0.000001 -0.000002 2.549537 -6.904371 24.300660 -1.124987 3.934999 39.943950 -0.000001 -0.000000 0.000000 3.462084 -9.593474 26.501033 -1.572226 7.998011 43.304342 -0.000002 0.000000 0.000006 -32.927355 5.921038 14.618181 34.077549 -14.093200 0.611164 0.487080 0.315662 -8.393755 -2.261777 -3.137220 0.783542 -0.000000 0.000003 0.000000 -7.168638 -12.962336 -16.260360 32.953163 -8.985242 -0.274973 -18.276213 -3.713342 17.727071 -1.477737 -0.504045 0.325129 -0.000000 0.000001 0.000000 
-0.122274 93.986511 -0.782401 -3.382307 -40.520729 -3.454360 5.927824 4.530835 -1.111063 12.004171 8.695475 -2.784134 0.000000 0.000000 0.000000 12.004175 8.695489 -2.784140 -4.402250 -1.432521 -0.308001 -7.743047 19.546099 -0.146669 -0.000001 0.000000 0.000000 1.744170 -1.717849 -6.596194 0.000000 0.000000 0.000000 -9.656327 2.899159 -62.029285 12.853452 -52.487053 6.201627 14.224881 1.951089 15.624066 9.323761 5.688851 -5.949672 -0.335225 0.032295 0.783673 0.000006 0.000013 0.000011 -0.000001 0.000002 0.000003 -0.782990 -6.833240 -3.456141 0.013106 0.736808 -16.998785 0.000004 -0.000002 0.000000 1.951597 9.750303 -14.576706 -0.472445 -1.585726 -22.093630 -0.000002 -0.000000 -0.000000 3.028777 14.536837 -33.148438 -0.631097 -2.795164 -33.635734 -0.000001 0.000001 -0.000000 4.069977 17.795438 -35.410911 -0.726090 -5.810336 -40.707480 0.000004 -0.000001 -0.000000 1.665580 8.672809 8.386896 0.000000 0.000000 0.000000 -0.517093 -21.343884 59.835073 -0.867251 43.424061 3.841140 9.539184 9.854833 10.594285 -8.424788 -5.710906 -1.809463 7.405757 -18.074632 -2.841192 -0.000003 0.000003 0.000004 0.000001 -0.000000 -0.000001 -1.037038 -2.082861 6.381576 -0.021291 -0.648459 21.839555 -0.000000 0.000000 -0.000000 -1.065005 -2.741162 16.363907 -0.904113 2.190628 35.561148 -0.000001 -0.000001 -0.000000 2.642169 -6.488008 26.411337 -1.248713 4.078755 42.132910 -0.000001 -0.000000 -0.000002 3.458234 -9.126078 28.634643 -1.708308 8.136584 45.833445 -0.000000 0.000000 0.000000 -35.403821 6.064033 15.332424 34.523895 -12.003240 1.371432 1.484839 -1.518377 -8.377917 -2.203004 -3.055416 0.763582 -0.000000 0.000001 -0.000000 -8.577301 -13.934809 -15.162392 33.670978 -8.172183 -1.198977 -18.406405 -3.680609 17.941693 -1.456844 -0.644450 0.637617 -0.000000 0.000000 -0.000000 
-0.107973 93.755280 -1.290428 -1.939394 -39.242859 -3.309141 5.980015 4.435276 -1.032644 12.097066 8.496681 -2.607071 0.000000 0.000000 0.000000 12.097066 8.496696 -2.607071 -4.402071 -1.602832 -0.704804 -8.692104 19.262918 0.109188 0.000002 0.000000 0.000000 1.920543 -2.204490 -5.946349 0.000000 0.000000 0.000000 -7.362911 3.228200 -61.378238 14.333900 -54.674039 6.292074 13.459746 1.934150 13.988612 9.552664 6.521020 -6.281345 -0.335197 0.032313 0.783665 0.000007 0.000016 0.000012 -0.000001 -0.000001 0.000005 -0.845293 -6.711933 -4.125685 -0.007805 0.670584 -17.571688 0.000001 -0.000001 0.000002 2.022870 9.683093 -15.641249 -0.484471 -1.614715 -22.381751 -0.000002 -0.000001 0.000000 3.325907 14.067990 -34.924502 -0.685057 -2.872677 -35.188824 -0.000002 0.000000 -0.000002 4.168844 17.353813 -36.084012 -0.747009 -5.832941 -42.138640 0.000000 0.000001 -0.000000 1.789073 8.381569 7.651967 0.000000 0.000000 0.000000 -1.251871 -20.026750 59.610599 1.393161 43.948518 1.818021 11.192229 8.642881 11.211510 -7.961401 -5.906366 -2.217060 7.208766 -17.631838 -2.832178 -0.000002 0.000003 0.000005 0.000000 0.000000 0.000000 -0.983917 -2.462984 7.369497 -0.096625 -0.468452 23.776558 -0.000000 -0.000001 -0.000001 -1.250096 -2.657357 17.910313 -1.020512 2.348286 37.744254 0.000000 -0.000001 -0.000001 2.681780 -6.018255 28.379887 -1.362747 4.201920 44.070556 0.000000 -0.000000 0.000002 3.439289 -8.676260 30.575274 -1.840093 8.259788 48.182989 0.000001 -0.000000 0.000001 -38.110567 6.255506 16.320039 34.923618 -9.686609 2.013764 2.477998 -3.618049 -8.338420 -2.142971 -2.971880 0.743140 0.000000 -0.000002 -0.000000 -10.238642 -15.081573 -13.859550 34.629964 -7.292403 -2.484230 -18.573665 -3.647732 18.227029 -1.569409 -0.717734 0.832049 -0.000000 -0.000001 0.000000 
-0.118651 93.417755 -1.920419 -0.431533 -37.971385 -3.230624 6.056517 4.330184 -0.969189 12.238722 8.275165 -2.450793 0.000000 0.000000 0.000000 12.238725 8.275164 -2.450793 -4.719265 -1.744780 -0.984015 -9.495649 19.031747 0.296237 0.000001 0.000000 0.000000 2.070255 -2.775725 -5.543034 0.000000 0.000000 0.000000 -4.738526 3.304523 -61.853360 16.932059 -58.793319 7.337203 12.753211 3.823468 13.910533 9.888283 7.437723 -6.570667 -0.335255 0.032348 0.783694 0.000007 0.000018 0.000012 -0.000002 0.000002 0.000002 -1.041646 -6.596347 -5.588627 -0.048107 0.548812 -18.629894 0.000001 -0.000000 -0.000001 2.057994 9.409573 -17.552702 -0.508972 -1.672769 -22.960183 -0.000001 0.000000 0.000002 3.451828 13.503746 -36.432741 -0.748752 -2.958759 -36.950586 -0.000001 0.000002 0.000001 4.736795 17.380113 -37.393916 -0.778047 -5.864548 -44.199828 -0.000002 0.000002 -0.000006 1.923292 8.317056 6.899309 0.000000 0.000000 0.000000 -1.712075 -18.994024 59.533541 3.482595 44.694914 -0.233183 12.536307 7.609632 12.470215 -7.005764 -5.805908 -2.456503 7.021472 -17.209970 -2.822154 -0.000001 0.000002 0.000005 -0.000000 0.000000 0.000001 -0.905201 -2.884719 8.184539 -0.164234 -0.320023 25.395774 -0.000000 -0.000000 -0.000001 -1.413496 -2.588917 19.125180 -1.131399 2.487481 39.727140 0.000001 0.000001 0.000004 2.604023 -5.344207 30.419067 -1.459713 4.300431 45.665815 0.000000 0.000000 -0.000002 3.376836 -8.290481 32.115112 -1.941632 8.348050 49.934263 -0.000000 0.000000 0.000001 -41.192406 6.589642 17.620667 35.340871 -7.338649 2.610766 3.548642 -5.851210 -8.268836 -2.081891 -2.886982 0.722287 -0.000000 0.000002 0.000000 -12.314407 -16.375018 -12.300276 36.067374 -6.422729 -4.192864 -18.870564 -3.608940 18.495910 -1.987812 -0.760841 0.377424 -0.000000 0.000000 0.000000 
